Coordinates
version=1
nRows=14
nColumns=63
inDegrees=yes

Units are S.I. units (second, meters, Newtons, ...)
If the header above contains a line with 'inDegrees', this indicates whether rotational values are in degrees (yes) or radians (no).

endheader
time	pelvis_tilt	pelvis_list	pelvis_rotation	pelvis_tx	pelvis_ty	pelvis_tz	hip_flexion_r	hip_adduction_r	hip_rotation_r	knee_angle_r	knee_angle_r_beta	ankle_angle_r	subtalar_angle_r	mtp_angle_r	hip_flexion_l	hip_adduction_l	hip_rotation_l	knee_angle_l	knee_angle_l_beta	ankle_angle_l	subtalar_angle_l	mtp_angle_l	L5_S1_Flex_Ext	L5_S1_Lat_Bending	L5_S1_axial_rotation	L4_L5_Flex_Ext	L4_L5_Lat_Bending	L4_L5_axial_rotation	L3_L4_Flex_Ext	L3_L4_Lat_Bending	L3_L4_axial_rotation	L2_L3_Flex_Ext	L2_L3_Lat_Bending	L2_L3_axial_rotation	L1_L2_Flex_Ext	L1_L2_Lat_Bending	L1_L2_axial_rotation	L1_T12_Flex_Ext	L1_T12_Lat_Bending	L1_T12_axial_rotation	Abs_r3	Abs_r2	Abs_r1	Abs_t1	Abs_t2	neck_flexion	neck_bending	neck_rotation	arm_flex_r	arm_add_r	arm_rot_r	elbow_flex_r	pro_sup_r	wrist_flex_r	wrist_dev_r	arm_flex_l	arm_add_l	arm_rot_l	elbow_flex_l	pro_sup_l	wrist_flex_l	wrist_dev_l
1.416667	5.984153	6.875830	96.201509	0.307331	0.920561	0.633878	-10.712248	7.765527	-10.241160	9.612649	0.167772	41.313195	10.456269	0.000000	-1.046784	-6.739154	11.858484	24.143913	0.421391	43.896247	-10.604371	0.000000	0.264570	1.215483	-3.347535	0.491334	1.616592	-3.556756	0.434663	2.955325	-3.556756	0.302378	2.955325	-2.929093	0.245680	2.478613	-2.719872	0.151176	1.882783	-2.510651	1.889800	13.749786	-18.617986	0.000000	0.000000	11.866067	-2.158406	37.869133	24.363741	-9.824228	84.979653	108.675209	65.865628	-27.929274	17.817166	22.843306	-7.444789	79.299723	107.903339	30.762949	-26.982140	13.907288
1.433333	5.906257	7.020598	96.374009	0.307774	0.920656	0.633823	-10.864103	7.837840	-9.653134	9.472030	0.165318	41.431653	9.797756	0.000000	-0.945742	-6.690787	12.071511	24.517358	0.427909	43.936618	-10.768967	0.000000	0.264627	1.229341	-3.338033	0.491439	1.635024	-3.546660	0.434756	2.989021	-3.546660	0.302443	2.989021	-2.920779	0.245733	2.506873	-2.712152	0.151208	1.904250	-2.503525	1.890207	13.906556	-18.565137	0.000000	0.000000	11.857443	-2.046279	38.776181	24.422223	-9.928172	84.941489	108.713772	64.784451	-26.456345	18.188553	22.571657	-7.218581	78.717640	107.692110	32.987156	-26.041379	15.101383
1.450000	5.807498	7.137603	96.598902	0.308056	0.920782	0.633884	-10.987859	7.894772	-9.067794	9.315389	0.162584	41.515160	9.049520	0.000000	-0.824340	-6.618174	12.322393	24.863502	0.433950	43.964597	-10.851640	0.000000	0.265106	1.242715	-3.347393	0.492329	1.652811	-3.556605	0.435543	3.021537	-3.556605	0.302990	3.021537	-2.928969	0.246178	2.534144	-2.719756	0.151482	1.924965	-2.510544	1.893628	14.057838	-18.617193	0.000000	0.000000	11.895832	-1.924784	39.721288	24.516856	-9.995147	84.628325	108.711152	63.359289	-24.358218	18.642948	22.547531	-7.020025	78.240395	107.532442	35.340472	-25.150963	16.347932
1.466667	5.699173	7.220092	96.891205	0.308149	0.920928	0.634063	-11.070659	7.943683	-8.542337	9.155899	0.159801	41.558507	8.259676	0.000000	-0.671909	-6.531457	12.623794	25.183399	0.439533	43.994643	-10.832707	0.000000	0.268048	1.256111	-3.381089	0.497791	1.670627	-3.592407	0.440375	3.054108	-3.592407	0.306351	3.054108	-2.958453	0.248909	2.561461	-2.747135	0.153162	1.945716	-2.535817	1.914637	14.209377	-18.804602	0.000000	0.000000	11.893524	-1.749385	40.674261	24.635631	-10.034107	84.113598	108.680151	61.652201	-21.953972	19.077884	22.713402	-6.839313	77.850017	107.418931	37.895815	-24.353508	17.732437
1.483333	5.565259	7.277615	97.237818	0.308090	0.921094	0.634357	-11.122658	7.959019	-8.175460	9.001330	0.157103	41.593583	7.570498	0.000000	-0.510279	-6.414299	12.969444	25.463277	0.444418	44.028928	-10.721357	0.000000	0.272594	1.265571	-3.431711	0.506235	1.683209	-3.646193	0.447845	3.077109	-3.646193	0.311548	3.077109	-3.002747	0.253131	2.580752	-2.788265	0.155760	1.960369	-2.573784	1.947115	14.316390	-19.086149	0.000000	0.000000	11.866532	-1.532150	41.400465	24.761141	-10.047090	83.480685	108.635945	59.716545	-19.590132	19.425527	23.022256	-6.673135	77.556682	107.336784	40.673756	-23.679184	19.248138
1.500000	5.414029	7.317545	97.587436	0.307940	0.921283	0.634768	-11.150618	7.953157	-7.713456	8.854949	0.154548	41.565814	6.713587	0.000000	-0.356242	-6.275015	13.317559	25.696141	0.448482	44.083068	-10.526632	0.000000	0.276394	1.272245	-3.488710	0.513291	1.692086	-3.706755	0.454088	3.093338	-3.706755	0.315891	3.093338	-3.052621	0.256659	2.594363	-2.834577	0.157931	1.970708	-2.616533	1.974254	14.391895	-19.403159	0.000000	0.000000	11.818333	-1.292597	41.835722	24.903332	-10.036707	82.802466	108.589137	58.061098	-17.281996	19.812141	23.383786	-6.517533	77.285840	107.265239	43.627231	-23.074263	20.896216
1.516667	5.247530	7.337788	97.953511	0.307710	0.921484	0.635261	-11.157189	7.930133	-7.194690	8.710526	0.152027	41.470975	5.716253	0.000000	-0.206190	-6.114538	13.687614	25.879461	0.451682	44.159636	-10.264833	0.000000	0.281072	1.275574	-3.549830	0.521979	1.696514	-3.771695	0.461773	3.101431	-3.771695	0.321237	3.101431	-3.106101	0.261003	2.601151	-2.884237	0.160605	1.975864	-2.662373	2.007669	14.429550	-19.743090	0.000000	0.000000	11.702798	-0.982434	41.969357	25.026827	-10.008886	82.132888	108.539567	56.836055	-15.081091	20.294054	23.734900	-6.375053	77.021606	107.202922	46.575330	-22.575660	22.569827
1.533333	5.058519	7.350134	98.330642	0.307459	0.921693	0.635811	-11.156509	7.882772	-6.660967	8.568920	0.149556	41.339816	4.650609	0.000000	-0.075180	-5.929839	14.078785	26.008637	0.453936	44.254812	-9.956980	0.000000	0.284778	1.274006	-3.604126	0.528862	1.694427	-3.829383	0.467863	3.097617	-3.829383	0.325473	3.097617	-3.153610	0.264445	2.597952	-2.928352	0.162722	1.973435	-2.703094	2.034144	14.411805	-20.045065	0.000000	0.000000	11.549227	-0.627475	41.738412	25.082504	-9.971552	81.455704	108.476462	56.253200	-12.969643	20.925374	24.053547	-6.247958	76.806807	107.159503	49.105567	-22.283352	24.012970
1.550000	4.835388	7.365187	98.702338	0.307212	0.921901	0.636387	-11.163778	7.799920	-6.041020	8.429283	0.147119	41.171699	3.439385	0.000000	0.026935	-5.711375	14.455396	26.088738	0.455334	44.379031	-9.607665	0.000000	0.286233	1.264797	-3.635586	0.531563	1.682180	-3.862810	0.470251	3.075227	-3.862810	0.327135	3.075227	-3.181138	0.265796	2.579174	-2.953913	0.163553	1.959170	-2.726689	2.044531	14.307634	-20.220038	0.000000	0.000000	11.384179	-0.235859	41.023768	25.028158	-9.957044	80.763286	108.418370	56.217373	-11.142956	21.600678	24.338826	-6.109254	76.638882	107.099960	51.561563	-22.045379	25.376931
1.566667	4.613099	7.374409	99.057552	0.306981	0.922110	0.636937	-11.165210	7.708940	-5.421813	8.296840	0.144807	40.988881	2.240665	0.000000	0.111420	-5.491887	14.830310	26.120607	0.455891	44.528561	-9.267594	0.000000	0.286108	1.254025	-3.647083	0.531331	1.667853	-3.875026	0.470047	3.049035	-3.875026	0.326993	3.049035	-3.191198	0.265680	2.557207	-2.963255	0.163482	1.942484	-2.735313	2.043642	14.185777	-20.283983	0.000000	0.000000	11.192391	0.181286	40.072721	24.869770	-9.969205	80.079843	108.353540	57.027763	-9.554327	22.368971	24.579681	-5.968344	76.546419	107.043454	53.181812	-21.930912	26.406032
1.583333	4.371460	7.383092	99.406082	0.306767	0.922315	0.637435	-11.173611	7.590555	-4.827504	8.163862	0.142486	40.814003	1.072215	0.000000	0.172764	-5.254842	15.194696	26.103984	0.455600	44.709544	-8.915418	0.000000	0.284842	1.238003	-3.636985	0.528979	1.646544	-3.864296	0.467966	3.010080	-3.864296	0.325545	3.010080	-3.182361	0.264504	2.524535	-2.955050	0.162759	1.917666	-2.727738	2.034595	14.004533	-20.227817	0.000000	0.000000	10.996991	0.595404	38.814393	24.625703	-10.011475	79.461431	108.300039	58.313782	-8.459561	23.076476	24.778793	-5.823756	76.517117	106.974649	54.446943	-21.785211	27.202805
1.600000	4.132131	7.392147	99.724333	0.306608	0.922535	0.637875	-11.190968	7.475632	-4.077202	8.021402	0.140000	40.597924	-0.263296	0.000000	0.211835	-5.025816	15.515710	26.042778	0.454532	44.918173	-8.557485	0.000000	0.282454	1.219419	-3.597444	0.524545	1.621827	-3.822285	0.464043	2.964894	-3.822285	0.322816	2.964894	-3.147764	0.262287	2.486638	-2.922924	0.161394	1.888879	-2.698083	2.017539	13.794307	-20.007907	0.000000	0.000000	10.779517	0.980052	37.330729	24.297502	-10.099540	78.933668	108.276687	59.342887	-8.028868	23.457038	25.025493	-5.665110	76.659020	106.868032	55.242635	-21.478424	27.632104
1.616667	3.903410	7.401129	99.980769	0.306528	0.922781	0.638260	-11.212000	7.359234	-3.208230	7.880048	0.137533	40.357460	-1.673625	0.000000	0.227693	-4.819055	15.724481	25.938555	0.452713	45.157887	-8.163300	0.000000	0.278465	1.199826	-3.525568	0.517138	1.595769	-3.745916	0.457490	2.917258	-3.745916	0.318258	2.917258	-3.084872	0.258583	2.446686	-2.864524	0.159115	1.858531	-2.644176	1.989049	13.572675	-19.608152	0.000000	0.000000	10.537218	1.309703	35.694028	23.893963	-10.234213	78.470490	108.306123	60.306821	-8.211402	23.645235	25.331926	-5.480075	76.970275	106.729466	55.688459	-21.058830	27.767084
1.633333	3.685840	7.407756	100.167404	0.306531	0.923077	0.638568	-11.237722	7.242661	-2.190036	7.736371	0.135025	40.088532	-3.167740	0.000000	0.216196	-4.630401	15.838052	25.789269	0.450108	45.395590	-7.787163	0.000000	0.273850	1.180076	-3.431090	0.508567	1.569501	-3.645533	0.449909	2.869236	-3.645533	0.312983	2.869236	-3.002203	0.254297	2.406411	-2.787760	0.156478	1.827938	-2.573317	1.956085	13.349254	-19.082691	0.000000	0.000000	10.263109	1.552272	34.006502	23.485531	-10.398389	78.138933	108.371987	60.765030	-8.860590	23.461802	25.648275	-5.280689	77.339312	106.547057	56.162102	-20.424184	27.959629
